<svg width="883" height="620" viewBox="0 0 883 620" fill="none" xmlns="http://www.w3.org/2000/svg">
<path d="M252.784 519.474C241.99 519.49 231.567 515.534 223.502 508.361L0.355713 309.999L235.894 100.612C244.673 93.1016 256.049 89.3364 267.576 90.1262C279.103 90.916 289.859 96.1977 297.532 104.836C305.205 113.473 309.182 124.777 308.607 136.317C308.032 147.856 302.952 158.709 294.459 166.542L133.097 309.999L282.067 442.387C288.759 448.326 293.487 456.159 295.623 464.848C297.758 473.537 297.201 482.67 294.023 491.034C290.846 499.398 285.2 506.598 277.834 511.678C270.468 516.758 261.732 519.477 252.784 519.474ZM647.259 519.386L882.797 309.999L659.651 111.637C650.908 103.871 639.438 99.8959 627.765 100.586C616.091 101.277 605.17 106.577 597.404 115.319C589.637 124.062 585.662 135.532 586.353 147.206C587.044 158.879 592.343 169.8 601.086 177.567L750.056 309.999L588.694 453.412C579.945 461.178 574.64 472.102 573.945 483.78C573.251 495.457 577.223 506.933 584.989 515.681C592.756 524.43 603.679 529.735 615.357 530.43C627.035 531.125 638.51 527.152 647.259 519.386ZM440.959 581.875L529.159 52.6754C530.287 46.8918 530.244 40.9409 529.033 35.1741C527.823 29.4072 525.469 23.9415 522.11 19.0998C518.752 14.258 514.457 10.1384 509.48 6.98432C504.502 3.83021 498.944 1.70556 493.131 0.735882C487.319 -0.233799 481.372 -0.028852 475.64 1.33862C469.908 2.7061 464.509 5.20837 459.76 8.69762C455.012 12.1869 451.011 16.5923 447.994 21.6538C444.977 26.7152 443.004 32.33 442.194 38.1665L353.994 567.367C352.866 573.15 352.908 579.101 354.119 584.868C355.33 590.635 357.684 596.1 361.042 600.942C364.401 605.784 368.696 609.904 373.673 613.058C378.65 616.212 384.209 618.336 390.021 619.306C395.833 620.276 401.781 620.071 407.513 618.703C413.244 617.336 418.644 614.834 423.392 611.344C428.14 607.855 432.141 603.45 435.159 598.388C438.176 593.327 440.148 587.712 440.959 581.875Z" fill="url(#paint0_linear_1409_728)"/>
<defs>
<linearGradient id="paint0_linear_1409_728" x1="143.316" y1="170.737" x2="633.058" y2="550.229" gradientUnits="userSpaceOnUse">
<stop stop-color="#F2F5FF"/>
<stop offset="1" stop-color="#7209B7" stop-opacity="0.47"/>
</linearGradient>
</defs>
</svg>
